# xmcd
#
# Track frame offsets: 
#        225
#        14637
#        30406
#        44665
#        59589
#        75780
#        90223
#        110025
#        125229
#        138986
#        153245
#        168221
#        184573
#        204602
#
# Disc length: 2938 seconds
#
# Revision: 1
# Processed by: cddbd v1.5.1PL0 Copyright (c) Steve Scherf et al.
# Submitted via: ExactAudioCopy v0.95a5
#
DISCID=b40b770e
DTITLE=Various Artist - Kneipenknaller [CD 2)
DYEAR=1900
DGENRE=Pop
TTITLE0=Gottlieb Wendehals - Rein, raus (Strohhalm rein, Strohhalm rau
TTITLE0=s)
TTITLE1=Lollipops - hey Baby (Uh, Ah)
TTITLE2=Costa Cordalis - Anita
TTITLE3=Die Muntermacher - Ich brauch' Dich, wie Luft zum Atmen
TTITLE4=Peter Orloff and die Schwarzmeer Kosaken - Zwischen Kirche und K
TTITLE4=neipe
TTITLE5=Gunter Gabriel - Hey Boss, ich brauch' mehr Geld
TTITLE6=Peter Enke - Fiesta Mexicana
TTITLE7=Tops - Alles paletti
TTITLE8=Michael Heck - Komm wir machen das Leben zur Party
TTITLE9=Peter Petrel - Barmann, ich schmeiﬂ' eine Runde
TTITLE10=Chris Rabatz - Ein biﬂchen Spaﬂ muss sein
TTITLE11=Ulli Bastian - Mendocino
TTITLE12=Chris Marlow - Du
TTITLE13=Apres Ski Buam - Sierra Madre del sur
EXTD=
EXTT0=
EXTT1=
EXTT2=
EXTT3=
EXTT4=
EXTT5=
EXTT6=
EXTT7=
EXTT8=
EXTT9=
EXTT10=
EXTT11=
EXTT12=
EXTT13=
PLAYORDER=
